<svg width="14" height="12" viewBox="0 0 14 12" fill="none" xmlns="http://www.w3.org/2000/svg">
<path d="M5.1375 6C5.1375 6.5467 5.32696 7.07102 5.6642 7.45759C6.00144 7.84417 6.45884 8.06135 6.93577 8.06135C7.4127 8.06135 7.8701 7.84417 8.20734 7.45759C8.54458 7.07102 8.73404 6.5467 8.73404 6C8.73404 5.4533 8.54458 4.92898 8.20734 4.54241C7.8701 4.15583 7.4127 3.93865 6.93577 3.93865C6.45884 3.93865 6.00144 4.15583 5.6642 4.54241C5.32696 4.92898 5.1375 5.4533 5.1375 6ZM13.9073 5.52515C12.3852 1.84969 10.0843 0 7 0C3.91404 0 1.61482 1.84969 0.0927157 5.52699C0.0316634 5.67518 0 5.83704 0 6.00092C0 6.1648 0.0316634 6.32666 0.0927157 6.47485C1.61482 10.1503 3.91564 12 7 12C10.086 12 12.3852 10.1503 13.9073 6.47301C14.0309 6.17485 14.0309 5.82883 13.9073 5.52515ZM6.93577 9.23926C5.37513 9.23926 4.10992 7.78896 4.10992 6C4.10992 4.21104 5.37513 2.76074 6.93577 2.76074C8.49641 2.76074 9.76162 4.21104 9.76162 6C9.76162 7.78896 8.49641 9.23926 6.93577 9.23926Z" fill="black"/>
</svg>
