<svg width="4" height="14" viewBox="0 0 4 14" fill="none" xmlns="http://www.w3.org/2000/svg">
<path d="M4 12C4 12.5304 3.78929 13.0391 3.41421 13.4142C3.03914 13.7893 2.53043 14 2 14C1.46957 14 0.960859 13.7893 0.585786 13.4142C0.210713 13.0391 0 12.5304 0 12C0 11.4696 0.210713 10.9609 0.585786 10.5858C0.960859 10.2107 1.46957 10 2 10C2.53043 10 3.03914 10.2107 3.41421 10.5858C3.78929 10.9609 4 11.4696 4 12Z" fill="black"/>
<path d="M4 7C4 7.53043 3.78929 8.03914 3.41421 8.41421C3.03914 8.78929 2.53043 9 2 9C1.46957 9 0.960859 8.78929 0.585786 8.41421C0.210713 8.03914 0 7.53043 0 7C0 6.46957 0.210713 5.96086 0.585786 5.58579C0.960859 5.21071 1.46957 5 2 5C2.53043 5 3.03914 5.21071 3.41421 5.58579C3.78929 5.96086 4 6.46957 4 7Z" fill="black"/>
<path d="M4 12C4 12.5304 3.78929 13.0391 3.41421 13.4142C3.03914 13.7893 2.53043 14 2 14C1.46957 14 0.960859 13.7893 0.585786 13.4142C0.210713 13.0391 0 12.5304 0 12C0 11.4696 0.210713 10.9609 0.585786 10.5858C0.960859 10.2107 1.46957 10 2 10C2.53043 10 3.03914 10.2107 3.41421 10.5858C3.78929 10.9609 4 11.4696 4 12Z" fill="black"/>
<path d="M4 7C4 7.53043 3.78929 8.03914 3.41421 8.41421C3.03914 8.78929 2.53043 9 2 9C1.46957 9 0.960859 8.78929 0.585786 8.41421C0.210713 8.03914 0 7.53043 0 7C0 6.46957 0.210713 5.96086 0.585786 5.58579C0.960859 5.21071 1.46957 5 2 5C2.53043 5 3.03914 5.21071 3.41421 5.58579C3.78929 5.96086 4 6.46957 4 7Z" fill="black"/>
<path d="M4 12C4 12.5304 3.78929 13.0391 3.41421 13.4142C3.03914 13.7893 2.53043 14 2 14C1.46957 14 0.960859 13.7893 0.585786 13.4142C0.210713 13.0391 0 12.5304 0 12C0 11.4696 0.210713 10.9609 0.585786 10.5858C0.960859 10.2107 1.46957 10 2 10C2.53043 10 3.03914 10.2107 3.41421 10.5858C3.78929 10.9609 4 11.4696 4 12Z" fill="black"/>
<path d="M4 12C4 12.5304 3.78929 13.0391 3.41421 13.4142C3.03914 13.7893 2.53043 14 2 14C1.46957 14 0.960859 13.7893 0.585786 13.4142C0.210713 13.0391 0 12.5304 0 12C0 11.4696 0.210713 10.9609 0.585786 10.5858C0.960859 10.2107 1.46957 10 2 10C2.53043 10 3.03914 10.2107 3.41421 10.5858C3.78929 10.9609 4 11.4696 4 12Z" fill="black"/>
<path d="M4 7C4 7.53043 3.78929 8.03914 3.41421 8.41421C3.03914 8.78929 2.53043 9 2 9C1.46957 9 0.960859 8.78929 0.585786 8.41421C0.210713 8.03914 0 7.53043 0 7C0 6.46957 0.210713 5.96086 0.585786 5.58579C0.960859 5.21071 1.46957 5 2 5C2.53043 5 3.03914 5.21071 3.41421 5.58579C3.78929 5.96086 4 6.46957 4 7Z" fill="black"/>
<path d="M4 7C4 7.53043 3.78929 8.03914 3.41421 8.41421C3.03914 8.78929 2.53043 9 2 9C1.46957 9 0.960859 8.78929 0.585786 8.41421C0.210713 8.03914 0 7.53043 0 7C0 6.46957 0.210713 5.96086 0.585786 5.58579C0.960859 5.21071 1.46957 5 2 5C2.53043 5 3.03914 5.21071 3.41421 5.58579C3.78929 5.96086 4 6.46957 4 7Z" fill="black"/>
<path d="M4 12C4 12.5304 3.78929 13.0391 3.41421 13.4142C3.03914 13.7893 2.53043 14 2 14C1.46957 14 0.960859 13.7893 0.585786 13.4142C0.210713 13.0391 0 12.5304 0 12C0 11.4696 0.210713 10.9609 0.585786 10.5858C0.960859 10.2107 1.46957 10 2 10C2.53043 10 3.03914 10.2107 3.41421 10.5858C3.78929 10.9609 4 11.4696 4 12Z" fill="black"/>
<path d="M4 12C4 12.5304 3.78929 13.0391 3.41421 13.4142C3.03914 13.7893 2.53043 14 2 14C1.46957 14 0.960859 13.7893 0.585786 13.4142C0.210713 13.0391 0 12.5304 0 12C0 11.4696 0.210713 10.9609 0.585786 10.5858C0.960859 10.2107 1.46957 10 2 10C2.53043 10 3.03914 10.2107 3.41421 10.5858C3.78929 10.9609 4 11.4696 4 12Z" fill="black"/>
<path d="M4 12C4 12.5304 3.78929 13.0391 3.41421 13.4142C3.03914 13.7893 2.53043 14 2 14C1.46957 14 0.960859 13.7893 0.585786 13.4142C0.210713 13.0391 0 12.5304 0 12C0 11.4696 0.210713 10.9609 0.585786 10.5858C0.960859 10.2107 1.46957 10 2 10C2.53043 10 3.03914 10.2107 3.41421 10.5858C3.78929 10.9609 4 11.4696 4 12Z" fill="black"/>
<path d="M4 12C4 12.5304 3.78929 13.0391 3.41421 13.4142C3.03914 13.7893 2.53043 14 2 14C1.46957 14 0.960859 13.7893 0.585786 13.4142C0.210713 13.0391 0 12.5304 0 12C0 11.4696 0.210713 10.9609 0.585786 10.5858C0.960859 10.2107 1.46957 10 2 10C2.53043 10 3.03914 10.2107 3.41421 10.5858C3.78929 10.9609 4 11.4696 4 12Z" fill="black"/>
<path d="M4 7C4 7.53043 3.78929 8.03914 3.41421 8.41421C3.03914 8.78929 2.53043 9 2 9C1.46957 9 0.960859 8.78929 0.585786 8.41421C0.210713 8.03914 0 7.53043 0 7C0 6.46957 0.210713 5.96086 0.585786 5.58579C0.960859 5.21071 1.46957 5 2 5C2.53043 5 3.03914 5.21071 3.41421 5.58579C3.78929 5.96086 4 6.46957 4 7Z" fill="black"/>
<path d="M4 7C4 7.53043 3.78929 8.03914 3.41421 8.41421C3.03914 8.78929 2.53043 9 2 9C1.46957 9 0.960859 8.78929 0.585786 8.41421C0.210713 8.03914 0 7.53043 0 7C0 6.46957 0.210713 5.96086 0.585786 5.58579C0.960859 5.21071 1.46957 5 2 5C2.53043 5 3.03914 5.21071 3.41421 5.58579C3.78929 5.96086 4 6.46957 4 7Z" fill="black"/>
<path d="M4 7C4 7.53043 3.78929 8.03914 3.41421 8.41421C3.03914 8.78929 2.53043 9 2 9C1.46957 9 0.960859 8.78929 0.585786 8.41421C0.210713 8.03914 0 7.53043 0 7C0 6.46957 0.210713 5.96086 0.585786 5.58579C0.960859 5.21071 1.46957 5 2 5C2.53043 5 3.03914 5.21071 3.41421 5.58579C3.78929 5.96086 4 6.46957 4 7Z" fill="black"/>
<path d="M4 7C4 7.53043 3.78929 8.03914 3.41421 8.41421C3.03914 8.78929 2.53043 9 2 9C1.46957 9 0.960859 8.78929 0.585786 8.41421C0.210713 8.03914 0 7.53043 0 7C0 6.46957 0.210713 5.96086 0.585786 5.58579C0.960859 5.21071 1.46957 5 2 5C2.53043 5 3.03914 5.21071 3.41421 5.58579C3.78929 5.96086 4 6.46957 4 7Z" fill="black"/>
<path d="M4 12C4 12.5304 3.78929 13.0391 3.41421 13.4142C3.03914 13.7893 2.53043 14 2 14C1.46957 14 0.960859 13.7893 0.585786 13.4142C0.210713 13.0391 0 12.5304 0 12C0 11.4696 0.210713 10.9609 0.585786 10.5858C0.960859 10.2107 1.46957 10 2 10C2.53043 10 3.03914 10.2107 3.41421 10.5858C3.78929 10.9609 4 11.4696 4 12Z" fill="black"/>
<path d="M4 12C4 12.5304 3.78929 13.0391 3.41421 13.4142C3.03914 13.7893 2.53043 14 2 14C1.46957 14 0.960859 13.7893 0.585786 13.4142C0.210713 13.0391 0 12.5304 0 12C0 11.4696 0.210713 10.9609 0.585786 10.5858C0.960859 10.2107 1.46957 10 2 10C2.53043 10 3.03914 10.2107 3.41421 10.5858C3.78929 10.9609 4 11.4696 4 12Z" fill="black"/>
<path d="M4 12C4 12.5304 3.78929 13.0391 3.41421 13.4142C3.03914 13.7893 2.53043 14 2 14C1.46957 14 0.960859 13.7893 0.585786 13.4142C0.210713 13.0391 0 12.5304 0 12C0 11.4696 0.210713 10.9609 0.585786 10.5858C0.960859 10.2107 1.46957 10 2 10C2.53043 10 3.03914 10.2107 3.41421 10.5858C3.78929 10.9609 4 11.4696 4 12Z" fill="black"/>
<path d="M4 12C4 12.5304 3.78929 13.0391 3.41421 13.4142C3.03914 13.7893 2.53043 14 2 14C1.46957 14 0.960859 13.7893 0.585786 13.4142C0.210713 13.0391 0 12.5304 0 12C0 11.4696 0.210713 10.9609 0.585786 10.5858C0.960859 10.2107 1.46957 10 2 10C2.53043 10 3.03914 10.2107 3.41421 10.5858C3.78929 10.9609 4 11.4696 4 12Z" fill="black"/>
<path d="M4 12C4 12.5304 3.78929 13.0391 3.41421 13.4142C3.03914 13.7893 2.53043 14 2 14C1.46957 14 0.960859 13.7893 0.585786 13.4142C0.210713 13.0391 0 12.5304 0 12C0 11.4696 0.210713 10.9609 0.585786 10.5858C0.960859 10.2107 1.46957 10 2 10C2.53043 10 3.03914 10.2107 3.41421 10.5858C3.78929 10.9609 4 11.4696 4 12Z" fill="black"/>
<path d="M4 12C4 12.5304 3.78929 13.0391 3.41421 13.4142C3.03914 13.7893 2.53043 14 2 14C1.46957 14 0.960859 13.7893 0.585786 13.4142C0.210713 13.0391 0 12.5304 0 12C0 11.4696 0.210713 10.9609 0.585786 10.5858C0.960859 10.2107 1.46957 10 2 10C2.53043 10 3.03914 10.2107 3.41421 10.5858C3.78929 10.9609 4 11.4696 4 12Z" fill="black"/>
<path d="M4 12C4 12.5304 3.78929 13.0391 3.41421 13.4142C3.03914 13.7893 2.53043 14 2 14C1.46957 14 0.960859 13.7893 0.585786 13.4142C0.210713 13.0391 0 12.5304 0 12C0 11.4696 0.210713 10.9609 0.585786 10.5858C0.960859 10.2107 1.46957 10 2 10C2.53043 10 3.03914 10.2107 3.41421 10.5858C3.78929 10.9609 4 11.4696 4 12Z" fill="black"/>
<path d="M4 12C4 12.5304 3.78929 13.0391 3.41421 13.4142C3.03914 13.7893 2.53043 14 2 14C1.46957 14 0.960859 13.7893 0.585786 13.4142C0.210713 13.0391 0 12.5304 0 12C0 11.4696 0.210713 10.9609 0.585786 10.5858C0.960859 10.2107 1.46957 10 2 10C2.53043 10 3.03914 10.2107 3.41421 10.5858C3.78929 10.9609 4 11.4696 4 12Z" fill="black"/>
<path d="M4 7C4 7.53043 3.78929 8.03914 3.41421 8.41421C3.03914 8.78929 2.53043 9 2 9C1.46957 9 0.960859 8.78929 0.585786 8.41421C0.210713 8.03914 0 7.53043 0 7C0 6.46957 0.210713 5.96086 0.585786 5.58579C0.960859 5.21071 1.46957 5 2 5C2.53043 5 3.03914 5.21071 3.41421 5.58579C3.78929 5.96086 4 6.46957 4 7Z" fill="black"/>
<path d="M4 7C4 7.53043 3.78929 8.03914 3.41421 8.41421C3.03914 8.78929 2.53043 9 2 9C1.46957 9 0.960859 8.78929 0.585786 8.41421C0.210713 8.03914 0 7.53043 0 7C0 6.46957 0.210713 5.96086 0.585786 5.58579C0.960859 5.21071 1.46957 5 2 5C2.53043 5 3.03914 5.21071 3.41421 5.58579C3.78929 5.96086 4 6.46957 4 7Z" fill="black"/>
<path d="M4 7C4 7.53043 3.78929 8.03914 3.41421 8.41421C3.03914 8.78929 2.53043 9 2 9C1.46957 9 0.960859 8.78929 0.585786 8.41421C0.210713 8.03914 0 7.53043 0 7C0 6.46957 0.210713 5.96086 0.585786 5.58579C0.960859 5.21071 1.46957 5 2 5C2.53043 5 3.03914 5.21071 3.41421 5.58579C3.78929 5.96086 4 6.46957 4 7Z" fill="black"/>
<path d="M4 7C4 7.53043 3.78929 8.03914 3.41421 8.41421C3.03914 8.78929 2.53043 9 2 9C1.46957 9 0.960859 8.78929 0.585786 8.41421C0.210713 8.03914 0 7.53043 0 7C0 6.46957 0.210713 5.96086 0.585786 5.58579C0.960859 5.21071 1.46957 5 2 5C2.53043 5 3.03914 5.21071 3.41421 5.58579C3.78929 5.96086 4 6.46957 4 7Z" fill="black"/>
<path d="M4 7C4 7.53043 3.78929 8.03914 3.41421 8.41421C3.03914 8.78929 2.53043 9 2 9C1.46957 9 0.960859 8.78929 0.585786 8.41421C0.210713 8.03914 0 7.53043 0 7C0 6.46957 0.210713 5.96086 0.585786 5.58579C0.960859 5.21071 1.46957 5 2 5C2.53043 5 3.03914 5.21071 3.41421 5.58579C3.78929 5.96086 4 6.46957 4 7Z" fill="black"/>
<path d="M4 7C4 7.53043 3.78929 8.03914 3.41421 8.41421C3.03914 8.78929 2.53043 9 2 9C1.46957 9 0.960859 8.78929 0.585786 8.41421C0.210713 8.03914 0 7.53043 0 7C0 6.46957 0.210713 5.96086 0.585786 5.58579C0.960859 5.21071 1.46957 5 2 5C2.53043 5 3.03914 5.21071 3.41421 5.58579C3.78929 5.96086 4 6.46957 4 7Z" fill="black"/>
<path d="M4 7C4 7.53043 3.78929 8.03914 3.41421 8.41421C3.03914 8.78929 2.53043 9 2 9C1.46957 9 0.960859 8.78929 0.585786 8.41421C0.210713 8.03914 0 7.53043 0 7C0 6.46957 0.210713 5.96086 0.585786 5.58579C0.960859 5.21071 1.46957 5 2 5C2.53043 5 3.03914 5.21071 3.41421 5.58579C3.78929 5.96086 4 6.46957 4 7Z" fill="black"/>
<path d="M4 7C4 7.53043 3.78929 8.03914 3.41421 8.41421C3.03914 8.78929 2.53043 9 2 9C1.46957 9 0.960859 8.78929 0.585786 8.41421C0.210713 8.03914 0 7.53043 0 7C0 6.46957 0.210713 5.96086 0.585786 5.58579C0.960859 5.21071 1.46957 5 2 5C2.53043 5 3.03914 5.21071 3.41421 5.58579C3.78929 5.96086 4 6.46957 4 7Z" fill="black"/>
<path d="M4 12C4 12.5304 3.78929 13.0391 3.41421 13.4142C3.03914 13.7893 2.53043 14 2 14C1.46957 14 0.960859 13.7893 0.585786 13.4142C0.210713 13.0391 0 12.5304 0 12C0 11.4696 0.210713 10.9609 0.585786 10.5858C0.960859 10.2107 1.46957 10 2 10C2.53043 10 3.03914 10.2107 3.41421 10.5858C3.78929 10.9609 4 11.4696 4 12Z" fill="black"/>
<path d="M4 12C4 12.5304 3.78929 13.0391 3.41421 13.4142C3.03914 13.7893 2.53043 14 2 14C1.46957 14 0.960859 13.7893 0.585786 13.4142C0.210713 13.0391 0 12.5304 0 12C0 11.4696 0.210713 10.9609 0.585786 10.5858C0.960859 10.2107 1.46957 10 2 10C2.53043 10 3.03914 10.2107 3.41421 10.5858C3.78929 10.9609 4 11.4696 4 12Z" fill="black"/>
<path d="M4 12C4 12.5304 3.78929 13.0391 3.41421 13.4142C3.03914 13.7893 2.53043 14 2 14C1.46957 14 0.960859 13.7893 0.585786 13.4142C0.210713 13.0391 0 12.5304 0 12C0 11.4696 0.210713 10.9609 0.585786 10.5858C0.960859 10.2107 1.46957 10 2 10C2.53043 10 3.03914 10.2107 3.41421 10.5858C3.78929 10.9609 4 11.4696 4 12Z" fill="black"/>
<path d="M4 12C4 12.5304 3.78929 13.0391 3.41421 13.4142C3.03914 13.7893 2.53043 14 2 14C1.46957 14 0.960859 13.7893 0.585786 13.4142C0.210713 13.0391 0 12.5304 0 12C0 11.4696 0.210713 10.9609 0.585786 10.5858C0.960859 10.2107 1.46957 10 2 10C2.53043 10 3.03914 10.2107 3.41421 10.5858C3.78929 10.9609 4 11.4696 4 12Z" fill="black"/>
<path d="M4 12C4 12.5304 3.78929 13.0391 3.41421 13.4142C3.03914 13.7893 2.53043 14 2 14C1.46957 14 0.960859 13.7893 0.585786 13.4142C0.210713 13.0391 0 12.5304 0 12C0 11.4696 0.210713 10.9609 0.585786 10.5858C0.960859 10.2107 1.46957 10 2 10C2.53043 10 3.03914 10.2107 3.41421 10.5858C3.78929 10.9609 4 11.4696 4 12Z" fill="black"/>
<path d="M4 12C4 12.5304 3.78929 13.0391 3.41421 13.4142C3.03914 13.7893 2.53043 14 2 14C1.46957 14 0.960859 13.7893 0.585786 13.4142C0.210713 13.0391 0 12.5304 0 12C0 11.4696 0.210713 10.9609 0.585786 10.5858C0.960859 10.2107 1.46957 10 2 10C2.53043 10 3.03914 10.2107 3.41421 10.5858C3.78929 10.9609 4 11.4696 4 12Z" fill="black"/>
<path d="M4 12C4 12.5304 3.78929 13.0391 3.41421 13.4142C3.03914 13.7893 2.53043 14 2 14C1.46957 14 0.960859 13.7893 0.585786 13.4142C0.210713 13.0391 0 12.5304 0 12C0 11.4696 0.210713 10.9609 0.585786 10.5858C0.960859 10.2107 1.46957 10 2 10C2.53043 10 3.03914 10.2107 3.41421 10.5858C3.78929 10.9609 4 11.4696 4 12Z" fill="black"/>
<path d="M4 12C4 12.5304 3.78929 13.0391 3.41421 13.4142C3.03914 13.7893 2.53043 14 2 14C1.46957 14 0.960859 13.7893 0.585786 13.4142C0.210713 13.0391 0 12.5304 0 12C0 11.4696 0.210713 10.9609 0.585786 10.5858C0.960859 10.2107 1.46957 10 2 10C2.53043 10 3.03914 10.2107 3.41421 10.5858C3.78929 10.9609 4 11.4696 4 12Z" fill="black"/>
<path d="M4 12C4 12.5304 3.78929 13.0391 3.41421 13.4142C3.03914 13.7893 2.53043 14 2 14C1.46957 14 0.960859 13.7893 0.585786 13.4142C0.210713 13.0391 0 12.5304 0 12C0 11.4696 0.210713 10.9609 0.585786 10.5858C0.960859 10.2107 1.46957 10 2 10C2.53043 10 3.03914 10.2107 3.41421 10.5858C3.78929 10.9609 4 11.4696 4 12Z" fill="black"/>
<path d="M4 12C4 12.5304 3.78929 13.0391 3.41421 13.4142C3.03914 13.7893 2.53043 14 2 14C1.46957 14 0.960859 13.7893 0.585786 13.4142C0.210713 13.0391 0 12.5304 0 12C0 11.4696 0.210713 10.9609 0.585786 10.5858C0.960859 10.2107 1.46957 10 2 10C2.53043 10 3.03914 10.2107 3.41421 10.5858C3.78929 10.9609 4 11.4696 4 12Z" fill="black"/>
<path d="M4 12C4 12.5304 3.78929 13.0391 3.41421 13.4142C3.03914 13.7893 2.53043 14 2 14C1.46957 14 0.960859 13.7893 0.585786 13.4142C0.210713 13.0391 0 12.5304 0 12C0 11.4696 0.210713 10.9609 0.585786 10.5858C0.960859 10.2107 1.46957 10 2 10C2.53043 10 3.03914 10.2107 3.41421 10.5858C3.78929 10.9609 4 11.4696 4 12Z" fill="black"/>
<path d="M4 12C4 12.5304 3.78929 13.0391 3.41421 13.4142C3.03914 13.7893 2.53043 14 2 14C1.46957 14 0.960859 13.7893 0.585786 13.4142C0.210713 13.0391 0 12.5304 0 12C0 11.4696 0.210713 10.9609 0.585786 10.5858C0.960859 10.2107 1.46957 10 2 10C2.53043 10 3.03914 10.2107 3.41421 10.5858C3.78929 10.9609 4 11.4696 4 12Z" fill="black"/>
<path d="M4 12C4 12.5304 3.78929 13.0391 3.41421 13.4142C3.03914 13.7893 2.53043 14 2 14C1.46957 14 0.960859 13.7893 0.585786 13.4142C0.210713 13.0391 0 12.5304 0 12C0 11.4696 0.210713 10.9609 0.585786 10.5858C0.960859 10.2107 1.46957 10 2 10C2.53043 10 3.03914 10.2107 3.41421 10.5858C3.78929 10.9609 4 11.4696 4 12Z" fill="black"/>
<path d="M4 12C4 12.5304 3.78929 13.0391 3.41421 13.4142C3.03914 13.7893 2.53043 14 2 14C1.46957 14 0.960859 13.7893 0.585786 13.4142C0.210713 13.0391 0 12.5304 0 12C0 11.4696 0.210713 10.9609 0.585786 10.5858C0.960859 10.2107 1.46957 10 2 10C2.53043 10 3.03914 10.2107 3.41421 10.5858C3.78929 10.9609 4 11.4696 4 12Z" fill="black"/>
<path d="M4 12C4 12.5304 3.78929 13.0391 3.41421 13.4142C3.03914 13.7893 2.53043 14 2 14C1.46957 14 0.960859 13.7893 0.585786 13.4142C0.210713 13.0391 0 12.5304 0 12C0 11.4696 0.210713 10.9609 0.585786 10.5858C0.960859 10.2107 1.46957 10 2 10C2.53043 10 3.03914 10.2107 3.41421 10.5858C3.78929 10.9609 4 11.4696 4 12Z" fill="black"/>
<path d="M4 12C4 12.5304 3.78929 13.0391 3.41421 13.4142C3.03914 13.7893 2.53043 14 2 14C1.46957 14 0.960859 13.7893 0.585786 13.4142C0.210713 13.0391 0 12.5304 0 12C0 11.4696 0.210713 10.9609 0.585786 10.5858C0.960859 10.2107 1.46957 10 2 10C2.53043 10 3.03914 10.2107 3.41421 10.5858C3.78929 10.9609 4 11.4696 4 12Z" fill="black"/>
<path d="M4 7C4 7.53043 3.78929 8.03914 3.41421 8.41421C3.03914 8.78929 2.53043 9 2 9C1.46957 9 0.960859 8.78929 0.585786 8.41421C0.210713 8.03914 0 7.53043 0 7C0 6.46957 0.210713 5.96086 0.585786 5.58579C0.960859 5.21071 1.46957 5 2 5C2.53043 5 3.03914 5.21071 3.41421 5.58579C3.78929 5.96086 4 6.46957 4 7Z" fill="black"/>
<path d="M4 7C4 7.53043 3.78929 8.03914 3.41421 8.41421C3.03914 8.78929 2.53043 9 2 9C1.46957 9 0.960859 8.78929 0.585786 8.41421C0.210713 8.03914 0 7.53043 0 7C0 6.46957 0.210713 5.96086 0.585786 5.58579C0.960859 5.21071 1.46957 5 2 5C2.53043 5 3.03914 5.21071 3.41421 5.58579C3.78929 5.96086 4 6.46957 4 7Z" fill="black"/>
<path d="M4 7C4 7.53043 3.78929 8.03914 3.41421 8.41421C3.03914 8.78929 2.53043 9 2 9C1.46957 9 0.960859 8.78929 0.585786 8.41421C0.210713 8.03914 0 7.53043 0 7C0 6.46957 0.210713 5.96086 0.585786 5.58579C0.960859 5.21071 1.46957 5 2 5C2.53043 5 3.03914 5.21071 3.41421 5.58579C3.78929 5.96086 4 6.46957 4 7Z" fill="black"/>
<path d="M4 7C4 7.53043 3.78929 8.03914 3.41421 8.41421C3.03914 8.78929 2.53043 9 2 9C1.46957 9 0.960859 8.78929 0.585786 8.41421C0.210713 8.03914 0 7.53043 0 7C0 6.46957 0.210713 5.96086 0.585786 5.58579C0.960859 5.21071 1.46957 5 2 5C2.53043 5 3.03914 5.21071 3.41421 5.58579C3.78929 5.96086 4 6.46957 4 7Z" fill="black"/>
<path d="M4 7C4 7.53043 3.78929 8.03914 3.41421 8.41421C3.03914 8.78929 2.53043 9 2 9C1.46957 9 0.960859 8.78929 0.585786 8.41421C0.210713 8.03914 0 7.53043 0 7C0 6.46957 0.210713 5.96086 0.585786 5.58579C0.960859 5.21071 1.46957 5 2 5C2.53043 5 3.03914 5.21071 3.41421 5.58579C3.78929 5.96086 4 6.46957 4 7Z" fill="black"/>
<path d="M4 7C4 7.53043 3.78929 8.03914 3.41421 8.41421C3.03914 8.78929 2.53043 9 2 9C1.46957 9 0.960859 8.78929 0.585786 8.41421C0.210713 8.03914 0 7.53043 0 7C0 6.46957 0.210713 5.96086 0.585786 5.58579C0.960859 5.21071 1.46957 5 2 5C2.53043 5 3.03914 5.21071 3.41421 5.58579C3.78929 5.96086 4 6.46957 4 7Z" fill="black"/>
<path d="M4 7C4 7.53043 3.78929 8.03914 3.41421 8.41421C3.03914 8.78929 2.53043 9 2 9C1.46957 9 0.960859 8.78929 0.585786 8.41421C0.210713 8.03914 0 7.53043 0 7C0 6.46957 0.210713 5.96086 0.585786 5.58579C0.960859 5.21071 1.46957 5 2 5C2.53043 5 3.03914 5.21071 3.41421 5.58579C3.78929 5.96086 4 6.46957 4 7Z" fill="black"/>
<path d="M4 7C4 7.53043 3.78929 8.03914 3.41421 8.41421C3.03914 8.78929 2.53043 9 2 9C1.46957 9 0.960859 8.78929 0.585786 8.41421C0.210713 8.03914 0 7.53043 0 7C0 6.46957 0.210713 5.96086 0.585786 5.58579C0.960859 5.21071 1.46957 5 2 5C2.53043 5 3.03914 5.21071 3.41421 5.58579C3.78929 5.96086 4 6.46957 4 7Z" fill="black"/>
<path d="M4 7C4 7.53043 3.78929 8.03914 3.41421 8.41421C3.03914 8.78929 2.53043 9 2 9C1.46957 9 0.960859 8.78929 0.585786 8.41421C0.210713 8.03914 0 7.53043 0 7C0 6.46957 0.210713 5.96086 0.585786 5.58579C0.960859 5.21071 1.46957 5 2 5C2.53043 5 3.03914 5.21071 3.41421 5.58579C3.78929 5.96086 4 6.46957 4 7Z" fill="black"/>
<path d="M4 7C4 7.53043 3.78929 8.03914 3.41421 8.41421C3.03914 8.78929 2.53043 9 2 9C1.46957 9 0.960859 8.78929 0.585786 8.41421C0.210713 8.03914 0 7.53043 0 7C0 6.46957 0.210713 5.96086 0.585786 5.58579C0.960859 5.21071 1.46957 5 2 5C2.53043 5 3.03914 5.21071 3.41421 5.58579C3.78929 5.96086 4 6.46957 4 7Z" fill="black"/>
<path d="M4 7C4 7.53043 3.78929 8.03914 3.41421 8.41421C3.03914 8.78929 2.53043 9 2 9C1.46957 9 0.960859 8.78929 0.585786 8.41421C0.210713 8.03914 0 7.53043 0 7C0 6.46957 0.210713 5.96086 0.585786 5.58579C0.960859 5.21071 1.46957 5 2 5C2.53043 5 3.03914 5.21071 3.41421 5.58579C3.78929 5.96086 4 6.46957 4 7Z" fill="black"/>
<path d="M4 7C4 7.53043 3.78929 8.03914 3.41421 8.41421C3.03914 8.78929 2.53043 9 2 9C1.46957 9 0.960859 8.78929 0.585786 8.41421C0.210713 8.03914 0 7.53043 0 7C0 6.46957 0.210713 5.96086 0.585786 5.58579C0.960859 5.21071 1.46957 5 2 5C2.53043 5 3.03914 5.21071 3.41421 5.58579C3.78929 5.96086 4 6.46957 4 7Z" fill="black"/>
<path d="M4 7C4 7.53043 3.78929 8.03914 3.41421 8.41421C3.03914 8.78929 2.53043 9 2 9C1.46957 9 0.960859 8.78929 0.585786 8.41421C0.210713 8.03914 0 7.53043 0 7C0 6.46957 0.210713 5.96086 0.585786 5.58579C0.960859 5.21071 1.46957 5 2 5C2.53043 5 3.03914 5.21071 3.41421 5.58579C3.78929 5.96086 4 6.46957 4 7Z" fill="black"/>
<path d="M4 7C4 7.53043 3.78929 8.03914 3.41421 8.41421C3.03914 8.78929 2.53043 9 2 9C1.46957 9 0.960859 8.78929 0.585786 8.41421C0.210713 8.03914 0 7.53043 0 7C0 6.46957 0.210713 5.96086 0.585786 5.58579C0.960859 5.21071 1.46957 5 2 5C2.53043 5 3.03914 5.21071 3.41421 5.58579C3.78929 5.96086 4 6.46957 4 7Z" fill="black"/>
<path d="M4 7C4 7.53043 3.78929 8.03914 3.41421 8.41421C3.03914 8.78929 2.53043 9 2 9C1.46957 9 0.960859 8.78929 0.585786 8.41421C0.210713 8.03914 0 7.53043 0 7C0 6.46957 0.210713 5.96086 0.585786 5.58579C0.960859 5.21071 1.46957 5 2 5C2.53043 5 3.03914 5.21071 3.41421 5.58579C3.78929 5.96086 4 6.46957 4 7Z" fill="black"/>
<path d="M4 7C4 7.53043 3.78929 8.03914 3.41421 8.41421C3.03914 8.78929 2.53043 9 2 9C1.46957 9 0.960859 8.78929 0.585786 8.41421C0.210713 8.03914 0 7.53043 0 7C0 6.46957 0.210713 5.96086 0.585786 5.58579C0.960859 5.21071 1.46957 5 2 5C2.53043 5 3.03914 5.21071 3.41421 5.58579C3.78929 5.96086 4 6.46957 4 7Z" fill="black"/>
<path d="M4 2C4 2.53043 3.78929 3.03914 3.41421 3.41421C3.03914 3.78929 2.53043 4 2 4C1.46957 4 0.960859 3.78929 0.585786 3.41421C0.210713 3.03914 0 2.53043 0 2C0 1.46957 0.210713 0.960859 0.585786 0.585786C0.960859 0.210713 1.46957 0 2 0C2.53043 0 3.03914 0.210713 3.41421 0.585786C3.78929 0.960859 4 1.46957 4 2Z" fill="black"/>
<path d="M4 12C4 12.5304 3.78929 13.0391 3.41421 13.4142C3.03914 13.7893 2.53043 14 2 14C1.46957 14 0.960859 13.7893 0.585786 13.4142C0.210713 13.0391 0 12.5304 0 12C0 11.4696 0.210713 10.9609 0.585786 10.5858C0.960859 10.2107 1.46957 10 2 10C2.53043 10 3.03914 10.2107 3.41421 10.5858C3.78929 10.9609 4 11.4696 4 12Z" fill="black"/>
<path d="M4 12C4 12.5304 3.78929 13.0391 3.41421 13.4142C3.03914 13.7893 2.53043 14 2 14C1.46957 14 0.960859 13.7893 0.585786 13.4142C0.210713 13.0391 0 12.5304 0 12C0 11.4696 0.210713 10.9609 0.585786 10.5858C0.960859 10.2107 1.46957 10 2 10C2.53043 10 3.03914 10.2107 3.41421 10.5858C3.78929 10.9609 4 11.4696 4 12Z" fill="black"/>
<path d="M4 12C4 12.5304 3.78929 13.0391 3.41421 13.4142C3.03914 13.7893 2.53043 14 2 14C1.46957 14 0.960859 13.7893 0.585786 13.4142C0.210713 13.0391 0 12.5304 0 12C0 11.4696 0.210713 10.9609 0.585786 10.5858C0.960859 10.2107 1.46957 10 2 10C2.53043 10 3.03914 10.2107 3.41421 10.5858C3.78929 10.9609 4 11.4696 4 12Z" fill="black"/>
<path d="M4 12C4 12.5304 3.78929 13.0391 3.41421 13.4142C3.03914 13.7893 2.53043 14 2 14C1.46957 14 0.960859 13.7893 0.585786 13.4142C0.210713 13.0391 0 12.5304 0 12C0 11.4696 0.210713 10.9609 0.585786 10.5858C0.960859 10.2107 1.46957 10 2 10C2.53043 10 3.03914 10.2107 3.41421 10.5858C3.78929 10.9609 4 11.4696 4 12Z" fill="black"/>
<path d="M4 12C4 12.5304 3.78929 13.0391 3.41421 13.4142C3.03914 13.7893 2.53043 14 2 14C1.46957 14 0.960859 13.7893 0.585786 13.4142C0.210713 13.0391 0 12.5304 0 12C0 11.4696 0.210713 10.9609 0.585786 10.5858C0.960859 10.2107 1.46957 10 2 10C2.53043 10 3.03914 10.2107 3.41421 10.5858C3.78929 10.9609 4 11.4696 4 12Z" fill="black"/>
<path d="M4 12C4 12.5304 3.78929 13.0391 3.41421 13.4142C3.03914 13.7893 2.53043 14 2 14C1.46957 14 0.960859 13.7893 0.585786 13.4142C0.210713 13.0391 0 12.5304 0 12C0 11.4696 0.210713 10.9609 0.585786 10.5858C0.960859 10.2107 1.46957 10 2 10C2.53043 10 3.03914 10.2107 3.41421 10.5858C3.78929 10.9609 4 11.4696 4 12Z" fill="black"/>
<path d="M4 12C4 12.5304 3.78929 13.0391 3.41421 13.4142C3.03914 13.7893 2.53043 14 2 14C1.46957 14 0.960859 13.7893 0.585786 13.4142C0.210713 13.0391 0 12.5304 0 12C0 11.4696 0.210713 10.9609 0.585786 10.5858C0.960859 10.2107 1.46957 10 2 10C2.53043 10 3.03914 10.2107 3.41421 10.5858C3.78929 10.9609 4 11.4696 4 12Z" fill="black"/>
<path d="M4 12C4 12.5304 3.78929 13.0391 3.41421 13.4142C3.03914 13.7893 2.53043 14 2 14C1.46957 14 0.960859 13.7893 0.585786 13.4142C0.210713 13.0391 0 12.5304 0 12C0 11.4696 0.210713 10.9609 0.585786 10.5858C0.960859 10.2107 1.46957 10 2 10C2.53043 10 3.03914 10.2107 3.41421 10.5858C3.78929 10.9609 4 11.4696 4 12Z" fill="black"/>
<path d="M4 12C4 12.5304 3.78929 13.0391 3.41421 13.4142C3.03914 13.7893 2.53043 14 2 14C1.46957 14 0.960859 13.7893 0.585786 13.4142C0.210713 13.0391 0 12.5304 0 12C0 11.4696 0.210713 10.9609 0.585786 10.5858C0.960859 10.2107 1.46957 10 2 10C2.53043 10 3.03914 10.2107 3.41421 10.5858C3.78929 10.9609 4 11.4696 4 12Z" fill="black"/>
<path d="M4 12C4 12.5304 3.78929 13.0391 3.41421 13.4142C3.03914 13.7893 2.53043 14 2 14C1.46957 14 0.960859 13.7893 0.585786 13.4142C0.210713 13.0391 0 12.5304 0 12C0 11.4696 0.210713 10.9609 0.585786 10.5858C0.960859 10.2107 1.46957 10 2 10C2.53043 10 3.03914 10.2107 3.41421 10.5858C3.78929 10.9609 4 11.4696 4 12Z" fill="black"/>
<path d="M4 12C4 12.5304 3.78929 13.0391 3.41421 13.4142C3.03914 13.7893 2.53043 14 2 14C1.46957 14 0.960859 13.7893 0.585786 13.4142C0.210713 13.0391 0 12.5304 0 12C0 11.4696 0.210713 10.9609 0.585786 10.5858C0.960859 10.2107 1.46957 10 2 10C2.53043 10 3.03914 10.2107 3.41421 10.5858C3.78929 10.9609 4 11.4696 4 12Z" fill="black"/>
<path d="M4 12C4 12.5304 3.78929 13.0391 3.41421 13.4142C3.03914 13.7893 2.53043 14 2 14C1.46957 14 0.960859 13.7893 0.585786 13.4142C0.210713 13.0391 0 12.5304 0 12C0 11.4696 0.210713 10.9609 0.585786 10.5858C0.960859 10.2107 1.46957 10 2 10C2.53043 10 3.03914 10.2107 3.41421 10.5858C3.78929 10.9609 4 11.4696 4 12Z" fill="black"/>
<path d="M4 12C4 12.5304 3.78929 13.0391 3.41421 13.4142C3.03914 13.7893 2.53043 14 2 14C1.46957 14 0.960859 13.7893 0.585786 13.4142C0.210713 13.0391 0 12.5304 0 12C0 11.4696 0.210713 10.9609 0.585786 10.5858C0.960859 10.2107 1.46957 10 2 10C2.53043 10 3.03914 10.2107 3.41421 10.5858C3.78929 10.9609 4 11.4696 4 12Z" fill="black"/>
<path d="M4 12C4 12.5304 3.78929 13.0391 3.41421 13.4142C3.03914 13.7893 2.53043 14 2 14C1.46957 14 0.960859 13.7893 0.585786 13.4142C0.210713 13.0391 0 12.5304 0 12C0 11.4696 0.210713 10.9609 0.585786 10.5858C0.960859 10.2107 1.46957 10 2 10C2.53043 10 3.03914 10.2107 3.41421 10.5858C3.78929 10.9609 4 11.4696 4 12Z" fill="black"/>
<path d="M4 12C4 12.5304 3.78929 13.0391 3.41421 13.4142C3.03914 13.7893 2.53043 14 2 14C1.46957 14 0.960859 13.7893 0.585786 13.4142C0.210713 13.0391 0 12.5304 0 12C0 11.4696 0.210713 10.9609 0.585786 10.5858C0.960859 10.2107 1.46957 10 2 10C2.53043 10 3.03914 10.2107 3.41421 10.5858C3.78929 10.9609 4 11.4696 4 12Z" fill="black"/>
<path d="M4 12C4 12.5304 3.78929 13.0391 3.41421 13.4142C3.03914 13.7893 2.53043 14 2 14C1.46957 14 0.960859 13.7893 0.585786 13.4142C0.210713 13.0391 0 12.5304 0 12C0 11.4696 0.210713 10.9609 0.585786 10.5858C0.960859 10.2107 1.46957 10 2 10C2.53043 10 3.03914 10.2107 3.41421 10.5858C3.78929 10.9609 4 11.4696 4 12Z" fill="black"/>
<path d="M4 12C4 12.5304 3.78929 13.0391 3.41421 13.4142C3.03914 13.7893 2.53043 14 2 14C1.46957 14 0.960859 13.7893 0.585786 13.4142C0.210713 13.0391 0 12.5304 0 12C0 11.4696 0.210713 10.9609 0.585786 10.5858C0.960859 10.2107 1.46957 10 2 10C2.53043 10 3.03914 10.2107 3.41421 10.5858C3.78929 10.9609 4 11.4696 4 12Z" fill="black"/>
<path d="M4 12C4 12.5304 3.78929 13.0391 3.41421 13.4142C3.03914 13.7893 2.53043 14 2 14C1.46957 14 0.960859 13.7893 0.585786 13.4142C0.210713 13.0391 0 12.5304 0 12C0 11.4696 0.210713 10.9609 0.585786 10.5858C0.960859 10.2107 1.46957 10 2 10C2.53043 10 3.03914 10.2107 3.41421 10.5858C3.78929 10.9609 4 11.4696 4 12Z" fill="black"/>
<path d="M4 12C4 12.5304 3.78929 13.0391 3.41421 13.4142C3.03914 13.7893 2.53043 14 2 14C1.46957 14 0.960859 13.7893 0.585786 13.4142C0.210713 13.0391 0 12.5304 0 12C0 11.4696 0.210713 10.9609 0.585786 10.5858C0.960859 10.2107 1.46957 10 2 10C2.53043 10 3.03914 10.2107 3.41421 10.5858C3.78929 10.9609 4 11.4696 4 12Z" fill="black"/>
<path d="M4 12C4 12.5304 3.78929 13.0391 3.41421 13.4142C3.03914 13.7893 2.53043 14 2 14C1.46957 14 0.960859 13.7893 0.585786 13.4142C0.210713 13.0391 0 12.5304 0 12C0 11.4696 0.210713 10.9609 0.585786 10.5858C0.960859 10.2107 1.46957 10 2 10C2.53043 10 3.03914 10.2107 3.41421 10.5858C3.78929 10.9609 4 11.4696 4 12Z" fill="black"/>
<path d="M4 12C4 12.5304 3.78929 13.0391 3.41421 13.4142C3.03914 13.7893 2.53043 14 2 14C1.46957 14 0.960859 13.7893 0.585786 13.4142C0.210713 13.0391 0 12.5304 0 12C0 11.4696 0.210713 10.9609 0.585786 10.5858C0.960859 10.2107 1.46957 10 2 10C2.53043 10 3.03914 10.2107 3.41421 10.5858C3.78929 10.9609 4 11.4696 4 12Z" fill="black"/>
<path d="M4 12C4 12.5304 3.78929 13.0391 3.41421 13.4142C3.03914 13.7893 2.53043 14 2 14C1.46957 14 0.960859 13.7893 0.585786 13.4142C0.210713 13.0391 0 12.5304 0 12C0 11.4696 0.210713 10.9609 0.585786 10.5858C0.960859 10.2107 1.46957 10 2 10C2.53043 10 3.03914 10.2107 3.41421 10.5858C3.78929 10.9609 4 11.4696 4 12Z" fill="black"/>
<path d="M4 12C4 12.5304 3.78929 13.0391 3.41421 13.4142C3.03914 13.7893 2.53043 14 2 14C1.46957 14 0.960859 13.7893 0.585786 13.4142C0.210713 13.0391 0 12.5304 0 12C0 11.4696 0.210713 10.9609 0.585786 10.5858C0.960859 10.2107 1.46957 10 2 10C2.53043 10 3.03914 10.2107 3.41421 10.5858C3.78929 10.9609 4 11.4696 4 12Z" fill="black"/>
<path d="M4 12C4 12.5304 3.78929 13.0391 3.41421 13.4142C3.03914 13.7893 2.53043 14 2 14C1.46957 14 0.960859 13.7893 0.585786 13.4142C0.210713 13.0391 0 12.5304 0 12C0 11.4696 0.210713 10.9609 0.585786 10.5858C0.960859 10.2107 1.46957 10 2 10C2.53043 10 3.03914 10.2107 3.41421 10.5858C3.78929 10.9609 4 11.4696 4 12Z" fill="black"/>
<path d="M4 12C4 12.5304 3.78929 13.0391 3.41421 13.4142C3.03914 13.7893 2.53043 14 2 14C1.46957 14 0.960859 13.7893 0.585786 13.4142C0.210713 13.0391 0 12.5304 0 12C0 11.4696 0.210713 10.9609 0.585786 10.5858C0.960859 10.2107 1.46957 10 2 10C2.53043 10 3.03914 10.2107 3.41421 10.5858C3.78929 10.9609 4 11.4696 4 12Z" fill="black"/>
<path d="M4 12C4 12.5304 3.78929 13.0391 3.41421 13.4142C3.03914 13.7893 2.53043 14 2 14C1.46957 14 0.960859 13.7893 0.585786 13.4142C0.210713 13.0391 0 12.5304 0 12C0 11.4696 0.210713 10.9609 0.585786 10.5858C0.960859 10.2107 1.46957 10 2 10C2.53043 10 3.03914 10.2107 3.41421 10.5858C3.78929 10.9609 4 11.4696 4 12Z" fill="black"/>
<path d="M4 12C4 12.5304 3.78929 13.0391 3.41421 13.4142C3.03914 13.7893 2.53043 14 2 14C1.46957 14 0.960859 13.7893 0.585786 13.4142C0.210713 13.0391 0 12.5304 0 12C0 11.4696 0.210713 10.9609 0.585786 10.5858C0.960859 10.2107 1.46957 10 2 10C2.53043 10 3.03914 10.2107 3.41421 10.5858C3.78929 10.9609 4 11.4696 4 12Z" fill="black"/>
<path d="M4 12C4 12.5304 3.78929 13.0391 3.41421 13.4142C3.03914 13.7893 2.53043 14 2 14C1.46957 14 0.960859 13.7893 0.585786 13.4142C0.210713 13.0391 0 12.5304 0 12C0 11.4696 0.210713 10.9609 0.585786 10.5858C0.960859 10.2107 1.46957 10 2 10C2.53043 10 3.03914 10.2107 3.41421 10.5858C3.78929 10.9609 4 11.4696 4 12Z" fill="black"/>
<path d="M4 12C4 12.5304 3.78929 13.0391 3.41421 13.4142C3.03914 13.7893 2.53043 14 2 14C1.46957 14 0.960859 13.7893 0.585786 13.4142C0.210713 13.0391 0 12.5304 0 12C0 11.4696 0.210713 10.9609 0.585786 10.5858C0.960859 10.2107 1.46957 10 2 10C2.53043 10 3.03914 10.2107 3.41421 10.5858C3.78929 10.9609 4 11.4696 4 12Z" fill="black"/>
<path d="M4 12C4 12.5304 3.78929 13.0391 3.41421 13.4142C3.03914 13.7893 2.53043 14 2 14C1.46957 14 0.960859 13.7893 0.585786 13.4142C0.210713 13.0391 0 12.5304 0 12C0 11.4696 0.210713 10.9609 0.585786 10.5858C0.960859 10.2107 1.46957 10 2 10C2.53043 10 3.03914 10.2107 3.41421 10.5858C3.78929 10.9609 4 11.4696 4 12Z" fill="black"/>
<path d="M4 12C4 12.5304 3.78929 13.0391 3.41421 13.4142C3.03914 13.7893 2.53043 14 2 14C1.46957 14 0.960859 13.7893 0.585786 13.4142C0.210713 13.0391 0 12.5304 0 12C0 11.4696 0.210713 10.9609 0.585786 10.5858C0.960859 10.2107 1.46957 10 2 10C2.53043 10 3.03914 10.2107 3.41421 10.5858C3.78929 10.9609 4 11.4696 4 12Z" fill="black"/>
<path d="M4 12C4 12.5304 3.78929 13.0391 3.41421 13.4142C3.03914 13.7893 2.53043 14 2 14C1.46957 14 0.960859 13.7893 0.585786 13.4142C0.210713 13.0391 0 12.5304 0 12C0 11.4696 0.210713 10.9609 0.585786 10.5858C0.960859 10.2107 1.46957 10 2 10C2.53043 10 3.03914 10.2107 3.41421 10.5858C3.78929 10.9609 4 11.4696 4 12Z" fill="black"/>
<path d="M4 7C4 7.53043 3.78929 8.03914 3.41421 8.41421C3.03914 8.78929 2.53043 9 2 9C1.46957 9 0.960859 8.78929 0.585786 8.41421C0.210713 8.03914 0 7.53043 0 7C0 6.46957 0.210713 5.96086 0.585786 5.58579C0.960859 5.21071 1.46957 5 2 5C2.53043 5 3.03914 5.21071 3.41421 5.58579C3.78929 5.96086 4 6.46957 4 7Z" fill="black"/>
<path d="M4 7C4 7.53043 3.78929 8.03914 3.41421 8.41421C3.03914 8.78929 2.53043 9 2 9C1.46957 9 0.960859 8.78929 0.585786 8.41421C0.210713 8.03914 0 7.53043 0 7C0 6.46957 0.210713 5.96086 0.585786 5.58579C0.960859 5.21071 1.46957 5 2 5C2.53043 5 3.03914 5.21071 3.41421 5.58579C3.78929 5.96086 4 6.46957 4 7Z" fill="black"/>
<path d="M4 7C4 7.53043 3.78929 8.03914 3.41421 8.41421C3.03914 8.78929 2.53043 9 2 9C1.46957 9 0.960859 8.78929 0.585786 8.41421C0.210713 8.03914 0 7.53043 0 7C0 6.46957 0.210713 5.96086 0.585786 5.58579C0.960859 5.21071 1.46957 5 2 5C2.53043 5 3.03914 5.21071 3.41421 5.58579C3.78929 5.96086 4 6.46957 4 7Z" fill="black"/>
<path d="M4 7C4 7.53043 3.78929 8.03914 3.41421 8.41421C3.03914 8.78929 2.53043 9 2 9C1.46957 9 0.960859 8.78929 0.585786 8.41421C0.210713 8.03914 0 7.53043 0 7C0 6.46957 0.210713 5.96086 0.585786 5.58579C0.960859 5.21071 1.46957 5 2 5C2.53043 5 3.03914 5.21071 3.41421 5.58579C3.78929 5.96086 4 6.46957 4 7Z" fill="black"/>
<path d="M4 7C4 7.53043 3.78929 8.03914 3.41421 8.41421C3.03914 8.78929 2.53043 9 2 9C1.46957 9 0.960859 8.78929 0.585786 8.41421C0.210713 8.03914 0 7.53043 0 7C0 6.46957 0.210713 5.96086 0.585786 5.58579C0.960859 5.21071 1.46957 5 2 5C2.53043 5 3.03914 5.21071 3.41421 5.58579C3.78929 5.96086 4 6.46957 4 7Z" fill="black"/>
<path d="M4 7C4 7.53043 3.78929 8.03914 3.41421 8.41421C3.03914 8.78929 2.53043 9 2 9C1.46957 9 0.960859 8.78929 0.585786 8.41421C0.210713 8.03914 0 7.53043 0 7C0 6.46957 0.210713 5.96086 0.585786 5.58579C0.960859 5.21071 1.46957 5 2 5C2.53043 5 3.03914 5.21071 3.41421 5.58579C3.78929 5.96086 4 6.46957 4 7Z" fill="black"/>
<path d="M4 7C4 7.53043 3.78929 8.03914 3.41421 8.41421C3.03914 8.78929 2.53043 9 2 9C1.46957 9 0.960859 8.78929 0.585786 8.41421C0.210713 8.03914 0 7.53043 0 7C0 6.46957 0.210713 5.96086 0.585786 5.58579C0.960859 5.21071 1.46957 5 2 5C2.53043 5 3.03914 5.21071 3.41421 5.58579C3.78929 5.96086 4 6.46957 4 7Z" fill="black"/>
<path d="M4 7C4 7.53043 3.78929 8.03914 3.41421 8.41421C3.03914 8.78929 2.53043 9 2 9C1.46957 9 0.960859 8.78929 0.585786 8.41421C0.210713 8.03914 0 7.53043 0 7C0 6.46957 0.210713 5.96086 0.585786 5.58579C0.960859 5.21071 1.46957 5 2 5C2.53043 5 3.03914 5.21071 3.41421 5.58579C3.78929 5.96086 4 6.46957 4 7Z" fill="black"/>
<path d="M4 7C4 7.53043 3.78929 8.03914 3.41421 8.41421C3.03914 8.78929 2.53043 9 2 9C1.46957 9 0.960859 8.78929 0.585786 8.41421C0.210713 8.03914 0 7.53043 0 7C0 6.46957 0.210713 5.96086 0.585786 5.58579C0.960859 5.21071 1.46957 5 2 5C2.53043 5 3.03914 5.21071 3.41421 5.58579C3.78929 5.96086 4 6.46957 4 7Z" fill="black"/>
<path d="M4 7C4 7.53043 3.78929 8.03914 3.41421 8.41421C3.03914 8.78929 2.53043 9 2 9C1.46957 9 0.960859 8.78929 0.585786 8.41421C0.210713 8.03914 0 7.53043 0 7C0 6.46957 0.210713 5.96086 0.585786 5.58579C0.960859 5.21071 1.46957 5 2 5C2.53043 5 3.03914 5.21071 3.41421 5.58579C3.78929 5.96086 4 6.46957 4 7Z" fill="black"/>
<path d="M4 7C4 7.53043 3.78929 8.03914 3.41421 8.41421C3.03914 8.78929 2.53043 9 2 9C1.46957 9 0.960859 8.78929 0.585786 8.41421C0.210713 8.03914 0 7.53043 0 7C0 6.46957 0.210713 5.96086 0.585786 5.58579C0.960859 5.21071 1.46957 5 2 5C2.53043 5 3.03914 5.21071 3.41421 5.58579C3.78929 5.96086 4 6.46957 4 7Z" fill="black"/>
<path d="M4 7C4 7.53043 3.78929 8.03914 3.41421 8.41421C3.03914 8.78929 2.53043 9 2 9C1.46957 9 0.960859 8.78929 0.585786 8.41421C0.210713 8.03914 0 7.53043 0 7C0 6.46957 0.210713 5.96086 0.585786 5.58579C0.960859 5.21071 1.46957 5 2 5C2.53043 5 3.03914 5.21071 3.41421 5.58579C3.78929 5.96086 4 6.46957 4 7Z" fill="black"/>
<path d="M4 7C4 7.53043 3.78929 8.03914 3.41421 8.41421C3.03914 8.78929 2.53043 9 2 9C1.46957 9 0.960859 8.78929 0.585786 8.41421C0.210713 8.03914 0 7.53043 0 7C0 6.46957 0.210713 5.96086 0.585786 5.58579C0.960859 5.21071 1.46957 5 2 5C2.53043 5 3.03914 5.21071 3.41421 5.58579C3.78929 5.96086 4 6.46957 4 7Z" fill="black"/>
<path d="M4 7C4 7.53043 3.78929 8.03914 3.41421 8.41421C3.03914 8.78929 2.53043 9 2 9C1.46957 9 0.960859 8.78929 0.585786 8.41421C0.210713 8.03914 0 7.53043 0 7C0 6.46957 0.210713 5.96086 0.585786 5.58579C0.960859 5.21071 1.46957 5 2 5C2.53043 5 3.03914 5.21071 3.41421 5.58579C3.78929 5.96086 4 6.46957 4 7Z" fill="black"/>
<path d="M4 7C4 7.53043 3.78929 8.03914 3.41421 8.41421C3.03914 8.78929 2.53043 9 2 9C1.46957 9 0.960859 8.78929 0.585786 8.41421C0.210713 8.03914 0 7.53043 0 7C0 6.46957 0.210713 5.96086 0.585786 5.58579C0.960859 5.21071 1.46957 5 2 5C2.53043 5 3.03914 5.21071 3.41421 5.58579C3.78929 5.96086 4 6.46957 4 7Z" fill="black"/>
<path d="M4 7C4 7.53043 3.78929 8.03914 3.41421 8.41421C3.03914 8.78929 2.53043 9 2 9C1.46957 9 0.960859 8.78929 0.585786 8.41421C0.210713 8.03914 0 7.53043 0 7C0 6.46957 0.210713 5.96086 0.585786 5.58579C0.960859 5.21071 1.46957 5 2 5C2.53043 5 3.03914 5.21071 3.41421 5.58579C3.78929 5.96086 4 6.46957 4 7Z" fill="black"/>
<path d="M4 7C4 7.53043 3.78929 8.03914 3.41421 8.41421C3.03914 8.78929 2.53043 9 2 9C1.46957 9 0.960859 8.78929 0.585786 8.41421C0.210713 8.03914 0 7.53043 0 7C0 6.46957 0.210713 5.96086 0.585786 5.58579C0.960859 5.21071 1.46957 5 2 5C2.53043 5 3.03914 5.21071 3.41421 5.58579C3.78929 5.96086 4 6.46957 4 7Z" fill="black"/>
<path d="M4 7C4 7.53043 3.78929 8.03914 3.41421 8.41421C3.03914 8.78929 2.53043 9 2 9C1.46957 9 0.960859 8.78929 0.585786 8.41421C0.210713 8.03914 0 7.53043 0 7C0 6.46957 0.210713 5.96086 0.585786 5.58579C0.960859 5.21071 1.46957 5 2 5C2.53043 5 3.03914 5.21071 3.41421 5.58579C3.78929 5.96086 4 6.46957 4 7Z" fill="black"/>
<path d="M4 7C4 7.53043 3.78929 8.03914 3.41421 8.41421C3.03914 8.78929 2.53043 9 2 9C1.46957 9 0.960859 8.78929 0.585786 8.41421C0.210713 8.03914 0 7.53043 0 7C0 6.46957 0.210713 5.96086 0.585786 5.58579C0.960859 5.21071 1.46957 5 2 5C2.53043 5 3.03914 5.21071 3.41421 5.58579C3.78929 5.96086 4 6.46957 4 7Z" fill="black"/>
<path d="M4 7C4 7.53043 3.78929 8.03914 3.41421 8.41421C3.03914 8.78929 2.53043 9 2 9C1.46957 9 0.960859 8.78929 0.585786 8.41421C0.210713 8.03914 0 7.53043 0 7C0 6.46957 0.210713 5.96086 0.585786 5.58579C0.960859 5.21071 1.46957 5 2 5C2.53043 5 3.03914 5.21071 3.41421 5.58579C3.78929 5.96086 4 6.46957 4 7Z" fill="black"/>
<path d="M4 7C4 7.53043 3.78929 8.03914 3.41421 8.41421C3.03914 8.78929 2.53043 9 2 9C1.46957 9 0.960859 8.78929 0.585786 8.41421C0.210713 8.03914 0 7.53043 0 7C0 6.46957 0.210713 5.96086 0.585786 5.58579C0.960859 5.21071 1.46957 5 2 5C2.53043 5 3.03914 5.21071 3.41421 5.58579C3.78929 5.96086 4 6.46957 4 7Z" fill="black"/>
<path d="M4 7C4 7.53043 3.78929 8.03914 3.41421 8.41421C3.03914 8.78929 2.53043 9 2 9C1.46957 9 0.960859 8.78929 0.585786 8.41421C0.210713 8.03914 0 7.53043 0 7C0 6.46957 0.210713 5.96086 0.585786 5.58579C0.960859 5.21071 1.46957 5 2 5C2.53043 5 3.03914 5.21071 3.41421 5.58579C3.78929 5.96086 4 6.46957 4 7Z" fill="black"/>
<path d="M4 7C4 7.53043 3.78929 8.03914 3.41421 8.41421C3.03914 8.78929 2.53043 9 2 9C1.46957 9 0.960859 8.78929 0.585786 8.41421C0.210713 8.03914 0 7.53043 0 7C0 6.46957 0.210713 5.96086 0.585786 5.58579C0.960859 5.21071 1.46957 5 2 5C2.53043 5 3.03914 5.21071 3.41421 5.58579C3.78929 5.96086 4 6.46957 4 7Z" fill="black"/>
<path d="M4 7C4 7.53043 3.78929 8.03914 3.41421 8.41421C3.03914 8.78929 2.53043 9 2 9C1.46957 9 0.960859 8.78929 0.585786 8.41421C0.210713 8.03914 0 7.53043 0 7C0 6.46957 0.210713 5.96086 0.585786 5.58579C0.960859 5.21071 1.46957 5 2 5C2.53043 5 3.03914 5.21071 3.41421 5.58579C3.78929 5.96086 4 6.46957 4 7Z" fill="black"/>
<path d="M4 7C4 7.53043 3.78929 8.03914 3.41421 8.41421C3.03914 8.78929 2.53043 9 2 9C1.46957 9 0.960859 8.78929 0.585786 8.41421C0.210713 8.03914 0 7.53043 0 7C0 6.46957 0.210713 5.96086 0.585786 5.58579C0.960859 5.21071 1.46957 5 2 5C2.53043 5 3.03914 5.21071 3.41421 5.58579C3.78929 5.96086 4 6.46957 4 7Z" fill="black"/>
<path d="M4 7C4 7.53043 3.78929 8.03914 3.41421 8.41421C3.03914 8.78929 2.53043 9 2 9C1.46957 9 0.960859 8.78929 0.585786 8.41421C0.210713 8.03914 0 7.53043 0 7C0 6.46957 0.210713 5.96086 0.585786 5.58579C0.960859 5.21071 1.46957 5 2 5C2.53043 5 3.03914 5.21071 3.41421 5.58579C3.78929 5.96086 4 6.46957 4 7Z" fill="black"/>
<path d="M4 7C4 7.53043 3.78929 8.03914 3.41421 8.41421C3.03914 8.78929 2.53043 9 2 9C1.46957 9 0.960859 8.78929 0.585786 8.41421C0.210713 8.03914 0 7.53043 0 7C0 6.46957 0.210713 5.96086 0.585786 5.58579C0.960859 5.21071 1.46957 5 2 5C2.53043 5 3.03914 5.21071 3.41421 5.58579C3.78929 5.96086 4 6.46957 4 7Z" fill="black"/>
<path d="M4 7C4 7.53043 3.78929 8.03914 3.41421 8.41421C3.03914 8.78929 2.53043 9 2 9C1.46957 9 0.960859 8.78929 0.585786 8.41421C0.210713 8.03914 0 7.53043 0 7C0 6.46957 0.210713 5.96086 0.585786 5.58579C0.960859 5.21071 1.46957 5 2 5C2.53043 5 3.03914 5.21071 3.41421 5.58579C3.78929 5.96086 4 6.46957 4 7Z" fill="black"/>
<path d="M4 7C4 7.53043 3.78929 8.03914 3.41421 8.41421C3.03914 8.78929 2.53043 9 2 9C1.46957 9 0.960859 8.78929 0.585786 8.41421C0.210713 8.03914 0 7.53043 0 7C0 6.46957 0.210713 5.96086 0.585786 5.58579C0.960859 5.21071 1.46957 5 2 5C2.53043 5 3.03914 5.21071 3.41421 5.58579C3.78929 5.96086 4 6.46957 4 7Z" fill="black"/>
<path d="M4 7C4 7.53043 3.78929 8.03914 3.41421 8.41421C3.03914 8.78929 2.53043 9 2 9C1.46957 9 0.960859 8.78929 0.585786 8.41421C0.210713 8.03914 0 7.53043 0 7C0 6.46957 0.210713 5.96086 0.585786 5.58579C0.960859 5.21071 1.46957 5 2 5C2.53043 5 3.03914 5.21071 3.41421 5.58579C3.78929 5.96086 4 6.46957 4 7Z" fill="black"/>
<path d="M4 7C4 7.53043 3.78929 8.03914 3.41421 8.41421C3.03914 8.78929 2.53043 9 2 9C1.46957 9 0.960859 8.78929 0.585786 8.41421C0.210713 8.03914 0 7.53043 0 7C0 6.46957 0.210713 5.96086 0.585786 5.58579C0.960859 5.21071 1.46957 5 2 5C2.53043 5 3.03914 5.21071 3.41421 5.58579C3.78929 5.96086 4 6.46957 4 7Z" fill="black"/>
<path d="M4 7C4 7.53043 3.78929 8.03914 3.41421 8.41421C3.03914 8.78929 2.53043 9 2 9C1.46957 9 0.960859 8.78929 0.585786 8.41421C0.210713 8.03914 0 7.53043 0 7C0 6.46957 0.210713 5.96086 0.585786 5.58579C0.960859 5.21071 1.46957 5 2 5C2.53043 5 3.03914 5.21071 3.41421 5.58579C3.78929 5.96086 4 6.46957 4 7Z" fill="black"/>
</svg>
