<svg width="13" height="17" viewBox="0 0 13 17" fill="none" xmlns="http://www.w3.org/2000/svg">
<path d="M3.42984 10.3525C3.28196 10.3525 3.1823 10.3672 3.13086 10.3819V11.3436C3.19194 11.3583 3.26829 11.3624 3.37358 11.3624C3.75855 11.3624 3.99564 11.1648 3.99564 10.8309C3.99564 10.5321 3.7915 10.3525 3.42984 10.3525ZM6.23235 10.3623C6.07161 10.3623 5.96713 10.377 5.90524 10.3917V12.5225C5.96713 12.5372 6.06679 12.5372 6.1568 12.5372C6.81343 12.5421 7.241 12.1747 7.241 11.3975C7.24582 10.7199 6.85602 10.3623 6.23235 10.3623Z" fill="#EC2D29" fill-opacity="0.88"/>
<path d="M8.03703 0H1.60741C1.1811 0 0.772246 0.172025 0.470798 0.47823C0.169351 0.784436 0 1.19974 0 1.63278V14.695C0 15.1281 0.169351 15.5434 0.470798 15.8496C0.772246 16.1558 1.1811 16.3278 1.60741 16.3278H11.2518C11.6782 16.3278 12.087 16.1558 12.3885 15.8496C12.6899 15.5434 12.8593 15.1281 12.8593 14.695V4.89834L8.03703 0ZM4.41876 11.5846C4.17042 11.8213 3.80393 11.9275 3.37716 11.9275C3.29441 11.9284 3.2117 11.9235 3.12962 11.9128V13.0769H2.41111V9.86363C2.73537 9.8145 3.06301 9.79211 3.39082 9.79668C3.83849 9.79668 4.15675 9.88322 4.37134 10.0571C4.57548 10.222 4.71372 10.4922 4.71372 10.8106C4.71292 11.1307 4.60843 11.4009 4.41876 11.5846ZM7.47846 12.6908C7.1409 12.9757 6.62734 13.1112 5.99965 13.1112C5.62351 13.1112 5.35749 13.0867 5.17665 13.0622V9.86445C5.50103 9.81635 5.82857 9.7937 6.15637 9.79668C6.76477 9.79668 7.16019 9.90771 7.46881 10.1445C7.80235 10.3959 8.01132 10.7968 8.01132 11.3723C8.01132 11.9952 7.78708 12.4255 7.47846 12.6908ZM10.4481 10.4253H9.21687V11.169H10.3678V11.7683H9.21687V13.0778H8.48871V9.82118H10.4481V10.4253ZM8.03703 5.71473H7.23333V1.63278L11.2518 5.71473H8.03703Z" fill="#EC2D29" fill-opacity="0.88"/>
</svg>
