<svg width="14" height="14" viewBox="0 0 14 14" fill="none" xmlns="http://www.w3.org/2000/svg">
<path d="M7.58614 7.14137L2.17937 8.04285C2.11721 8.05322 2.05887 8.07978 2.01023 8.11984C1.96159 8.15991 1.92436 8.21207 1.90228 8.27109L0.0380524 13.2644C-0.139972 13.7238 0.340263 14.1616 0.781017 13.9413L13.7021 7.48158C13.7916 7.43689 13.8669 7.36817 13.9195 7.2831C13.9721 7.19803 14 7.09999 14 6.99997C14 6.89995 13.9721 6.80191 13.9195 6.71684C13.8669 6.63178 13.7916 6.56305 13.7021 6.51837L0.781017 0.0586893C0.340263 -0.161657 -0.139972 0.276883 0.0380524 0.73552L1.903 5.72885C1.92498 5.788 1.96216 5.84031 2.01081 5.88051C2.05946 5.92071 2.11785 5.94737 2.18009 5.95781L7.58686 6.85858C7.62013 6.8644 7.65028 6.88178 7.67201 6.90764C7.69374 6.9335 7.70565 6.96619 7.70565 6.99997C7.70565 7.03375 7.69374 7.06644 7.67201 7.0923C7.65028 7.11817 7.62013 7.13554 7.58686 7.14137H7.58614Z" fill="black"/>
</svg>
